<?xml version="1.0" encoding="UTF-8" standalone="no"?>
<svg
   xmlns:dc="http://purl.org/dc/elements/1.1/"
   xmlns:cc="http://creativecommons.org/ns#"
   xmlns:rdf="http://www.w3.org/1999/02/22-rdf-syntax-ns#"
   xmlns:svg="http://www.w3.org/2000/svg"
   xmlns="http://www.w3.org/2000/svg"
   id="svg8"
   version="1.1"
   viewBox="0 0 400 400"
   height="400mm"
   width="400mm">
  <defs
     id="defs2">
    <filter
       id="filter1634"
       style="color-interpolation-filters:sRGB;">
      <feFlood
         id="feFlood1624"
         result="flood"
         flood-color="rgb(0,0,0)"
         flood-opacity="0.639216" />
      <feComposite
         id="feComposite1626"
         result="composite1"
         operator="in"
         in2="SourceGraphic"
         in="flood" />
      <feGaussianBlur
         id="feGaussianBlur1628"
         result="blur"
         stdDeviation="4.3"
         in="composite1" />
      <feOffset
         id="feOffset1630"
         result="offset"
         dy="6.2"
         dx="0" />
      <feComposite
         id="feComposite1632"
         result="composite2"
         operator="over"
         in2="offset"
         in="SourceGraphic" />
    </filter>
  </defs>
  <metadata
     id="metadata5">
    <rdf:RDF>
      <cc:Work
         rdf:about="">
        <dc:format>image/svg+xml</dc:format>
        <dc:type
           rdf:resource="http://purl.org/dc/dcmitype/StillImage" />
        <dc:title></dc:title>
      </cc:Work>
    </rdf:RDF>
  </metadata>
  <g
     transform="translate(239.02551,28.308746)"
     id="layer1">
    <circle
       r="200"
       cy="171.69125"
       cx="-39.025513"
       id="path830"
       style="color:#000000;clip-rule:nonzero;display:inline;overflow:visible;visibility:visible;opacity:1;isolation:auto;mix-blend-mode:normal;color-interpolation:sRGB;color-interpolation-filters:linearRGB;solid-color:#000000;solid-opacity:1;fill:#1565c0;fill-opacity:1;fill-rule:nonzero;stroke:none;stroke-width:2.0857625;stroke-linecap:butt;stroke-linejoin:miter;stroke-miterlimit:4;stroke-dasharray:none;stroke-dashoffset:0;stroke-opacity:1;color-rendering:auto;image-rendering:auto;shape-rendering:auto;text-rendering:auto;enable-background:accumulate" />
    <path
       id="path826"
       d="m -33.333999,327.04138 c -29.486868,-6.12435 -34.313101,-7.19225 -34.244498,-7.57723 0.04392,-0.24646 2.897984,-7.74349 6.342364,-16.66006 5.942408,-15.38326 6.593054,-17.25732 12.729311,-36.66381 3.556739,-11.24854 6.522526,-20.50759 6.590637,-20.57571 0.06811,-0.0681 4.621644,0.19216 10.118963,0.57839 14.995251,1.05352 27.6318905,1.76694 32.7210137,1.8473 3.7586947,0.0593 4.5687628,0.1423 4.6765049,0.47879 0.1908651,0.59613 7.4544734,44.63056 7.5319044,45.66091 0.03661,0.48745 -2.3328,9.54003 -5.3597414,20.47724 -5.3535722,19.34395 -5.4343867,19.60323 -6.1037474,19.58334 -0.3730907,-0.0111 -16.1243082,-3.22818 -35.0027112,-7.14916 z m -93.906511,-71.16741 c -21.07687,-28.15188 -34.97526,-46.56509 -40.03305,-53.03762 -3.28226,-4.20033 -3.31633,-4.25844 -2.72439,-4.64631 1.48132,-0.97059 11.8649,-6.31567 22.43031,-11.54626 l 11.5319,-5.70909 21.02876,-0.97188 c 11.56581,-0.53454 21.413578,-0.96842 21.883928,-0.9642 0.82623,0.007 1.53114,0.98027 20.819278,28.73182 10.980247,15.79827 20.032009,28.90114 20.11503,29.11749 0.100336,0.26147 -4.16984,4.64628 -12.735961,13.07789 l -12.8869,12.68452 -14.324117,8.8254 c -7.878248,4.85398 -14.712768,9.0643 -15.187818,9.35629 l -0.86373,0.5309 z m 179.556458,6.42991 -8.830601,-7.87228 -15.956382,-8.6659 -15.956392,-8.66586 -21.3437575,-32.09932 -21.3437565,-32.09931 0.857678,-0.75714 c 0.471719,-0.41643 3.692794,-2.89162 7.157943,-5.50042 l 6.300265,-4.74329 6.203474,4.47889 c 3.4119065,2.46338 6.3868465,4.69437 6.6109845,4.95774 0.22413,0.26337 14.7940805,22.27414 32.3776855,48.91283 17.583592,26.63869 32.203483,48.76977 32.488646,49.18017 0.285154,0.4104 0.461397,0.74618 0.391643,0.74618 -0.06975,0 -4.100597,-3.54253 -8.95743,-7.87229 z m -69.369616,-20.24507 c -5.584562,-1.03726 -9.193565,-2.11369 -14.017293,-4.18083 -4.021436,-1.72331 -7.823469,-3.83725 -12.438243,-6.91567 -5.371488,-3.58319 -9.070157,-6.62906 -14.426639,-11.88036 l -4.658443,-4.56695 -6.707565,-9.65363 c -5.059823,-7.28216 -7.05654,-10.3938 -8.128148,-12.66672 -1.832062,-3.8859 -3.144115,-7.63957 -4.090357,-11.70213 -0.661923,-2.84189 -0.759042,-3.81759 -0.773621,-7.77175 -0.0093,-2.48702 0.08478,-4.62382 0.208734,-4.74843 0.123982,-0.12461 1.571681,-0.26826 3.2171,-0.31919 l 2.99169,-0.0926 -0.210126,1.44931 c -2.225489,15.35022 11.56006,38.76646 31.763359,53.95345 9.766328,7.34143 18.949356,11.63568 27.616131,12.91412 7.3171105,1.07934 12.6836585,-0.51288 15.3903555,-4.56618 0.597337,-0.89452 1.08607,-1.72664 1.08607,-1.84915 0,-0.12252 0.12774,-0.55874 0.283863,-0.96937 0.2784395,-0.73235 0.3252655,-0.68471 2.449641,2.49221 l 2.1657786,3.23884 -2.3818098,2.31187 c -2.5774578,2.50178 -4.7801408,3.83473 -8.0799148,4.88955 -1.57751,0.50427 -2.63506,0.62007 -6.2407935,0.68338 -2.387785,0.042 -4.646677,0.0195 -5.019769,-0.0498 z m 30.28092,-52.19194 -14.3292995,-21.7001 -6.66678,-4.82327 c -3.6667345,-2.65279 -6.9200675,-4.97157 -7.2296345,-5.15282 -0.721562,-0.4225 -2.730611,-0.44159 -3.497575,-0.0331 -0.325966,0.17355 -3.976233,2.87546 -8.111697,6.00423 l -7.519027,5.68868 -2.520509,-1.61796 c -1.386284,-0.88988 -3.193344,-1.99667 -4.015689,-2.45954 -1.122098,-0.63159 -4.033415,-3.46211 -11.66757,-11.34375 -5.594817,-5.77619 -10.172393,-10.58176 -10.172393,-10.67902 0,-0.0973 6.440906,-6.50017 14.313123,-14.22866 l 14.313127,-14.05187 V 80.783827 c 0,-37.663302 -0.01568,-37.23791 1.487096,-40.309501 0.876854,-1.792231 2.378242,-3.294615 4.083753,-4.086468 1.006593,-0.467352 5.104084,-1.278368 15.601988,-3.088102 7.8302785,-1.349863 14.5116026,-2.515455 14.8473898,-2.590204 L 2.7540673,30.573646 V 20.125556 9.677464 l 0.7461824,-0.28741 c 0.8392419,-0.323256 7.0616993,-0.229023 7.5974813,0.115055 0.260865,0.167523 0.33918,2.438178 0.33918,9.834329 0,8.47109 0.04969,9.616514 0.417156,9.616514 0.229429,0 4.289338,-0.671265 9.022014,-1.491701 4.732673,-0.820436 9.122554,-1.492 9.755294,-1.492364 2.171532,-0.0012 13.230617,1.373123 14.358602,1.784421 1.515948,0.55276 3.386873,2.608487 4.191118,4.605104 l 0.650255,1.614309 0.0775,20.704435 0.07749,20.704435 1.007862,0.587663 c 2.509612,1.463308 8.323266,5.513714 10.968255,7.64165 5.540052,4.457048 11.731717,10.689348 16.289027,16.395886 7.538902,9.44005 13.172029,20.53659 15.170603,29.88419 0.820644,3.8382 0.887742,10.57459 0.133826,13.43129 -0.660335,2.50195 -2.061169,5.3928 -3.377493,6.96985 -1.147837,1.37518 -62.213826,61.27187 -62.468029,61.27187 -0.08461,0 -6.602027,-9.76506 -14.483139,-21.70012 z m 19.392306,3.51065 c 0.748082,-0.40036 52.354562,-50.28073 53.119712,-51.34297 1.359241,-1.88708 -0.05169,-4.54307 -2.413475,-4.54307 -0.926379,0 -1.305609,0.19618 -2.491352,1.28886 -2.850875,2.6271 -51.635715,49.83944 -51.921831,50.24821 -0.500686,0.71533 -0.617773,1.6134 -0.341018,2.6157 0.43703,1.58281 2.599225,2.50861 4.047964,1.73327 z m 1.504694,-19.69686 c 3.374121,-3.2642 7.678027,-7.42455 9.564235,-9.24523 l 3.429472,-3.31031 -4.287997,-0.0136 -4.288007,-0.0136 -7.20277,6.98698 c -3.961534,3.84283 -7.312856,7.19262 -7.447405,7.44397 -0.399741,0.7468 -0.267401,2.48497 0.236252,3.10289 0.748721,0.91858 1.472598,1.21088 2.707815,1.09344 1.087516,-0.10339 1.505287,-0.44986 7.288405,-6.04458 z m -12.559878,-6.05242 c 0.366268,-0.13925 3.48783,-2.97699 6.936804,-6.3061 l 6.270875,-6.05289 v -4.00479 c 0,-2.20263 -0.08581,-4.00478 -0.19068,-4.00478 -0.104874,0 -1.722733,1.49574 -3.595243,3.32391 -1.872509,1.82814 -5.632927,5.4983 -8.356493,8.15591 l -4.951941,4.83201 v 1.22311 c 0,1.4792 0.318198,2.13338 1.295686,2.66385 0.865462,0.46967 1.664494,0.52201 2.590992,0.16977 z m -6.217539,-11.33049 c 0.949831,-0.86694 5.705474,-5.42248 10.568085,-10.12342 l 8.841128,-8.54718 0.008,-4.02486 c 0.0046,-2.32115 -0.09704,-3.98658 -0.240144,-3.93441 -0.136485,0.0498 -4.990056,4.67799 -10.78572,10.28499 -5.795667,5.60701 -11.361763,10.98181 -12.36911,11.94399 -1.7855118,1.70547 -1.8313832,1.78338 -1.8255072,3.10103 0.00696,1.48983 0.5123532,2.37133 1.6219982,2.82741 1.287125,0.52902 2.355881,0.13856 4.181272,-1.52755 z M 65.88639,142.97907 c 8.382547,-8.11298 15.31186,-14.9355 15.398475,-15.16119 0.432538,-1.12714 0.149176,-2.32785 -0.765097,-3.24212 -0.998233,-0.99824 -2.202374,-1.20591 -3.32667,-0.57377 -0.322351,0.18126 -6.580113,6.12 -13.906095,13.19722 l -13.319984,12.86766 v 4.0392 c 0,3.16122 0.07368,3.99405 0.339172,3.83152 0.18655,-0.11421 7.197631,-6.84555 15.580199,-14.95852 z m -59.0874113,4.75545 c 1.4810817,-1.38044 8.3774513,-8.00449 15.3252663,-14.72014 l 12.632387,-12.21024 0.0077,-4.02485 c 0.0046,-2.33477 -0.097,-3.98688 -0.241637,-3.93442 -0.137139,0.0498 -6.687223,6.31768 -14.555756,13.92872 -7.868521,7.61106 -15.5728451,15.05932 -17.120704,16.55168 -2.6660495,2.57044 -2.8135645,2.77056 -2.8003185,3.79875 0.02561,1.98679 1.1078513,3.09243 3.0449775,3.11078 0.9106343,0.008 1.2925241,-0.24889 3.7080768,-2.50028 z m -13.0865702,-6.2504 c 0.324989,-0.18126 9.6327345,-9.0599 20.6838965,-19.73029 l 20.093016,-19.40073 0.0054,-4.177948 0.0054,-4.17796 -3.59665,3.49961 c -1.978145,1.92478 -12.049006,11.665608 -22.3796744,21.646278 -15.9074491,15.36848 -18.8094336,18.2874 -18.9555186,19.06607 -0.448306,2.38967 2.1081155,4.41023 4.1435625,3.27497 z M 64.890656,126.1219 c 5.29789,-5.09829 9.845555,-9.60149 10.105928,-10.00708 0.772695,-1.20362 0.617326,-2.41439 -0.446269,-3.47797 -0.746828,-0.74684 -1.132818,-0.92256 -2.026462,-0.92256 -1.334367,0 -1.497811,0.14278 -13.978425,12.21025 l -8.559164,8.27583 -0.0096,4.20066 -0.0096,4.20066 2.645551,-2.60507 c 1.455054,-1.43279 6.980193,-6.7764 12.278078,-11.87472 z m -81.944324,8.81125 c 0.671561,-0.63938 12.5154995,-12.0759 26.319862,-25.41448 l 25.098848,-24.251989 0.07982,-2.169547 c 0.09408,-2.557173 -0.133253,-2.858145 -2.1589,-2.858145 H 30.988953 L 5.6787814,104.6859 c -13.9205899,13.44579 -25.9512084,25.09585 -26.7346944,25.889 -1.328537,1.34489 -1.424533,1.53168 -1.424533,2.77186 0,1.10124 0.128247,1.44928 0.746182,2.02505 0.969681,0.90351 1.361156,1.03864 2.509888,0.8663 0.624249,-0.0936 1.368094,-0.54082 2.170708,-1.30496 z m -15.601979,-2.17751 c 0.781071,-0.5148 52.353699,-50.446542 52.879081,-51.196633 0.549943,-0.785151 0.561196,-1.924663 0.02915,-2.953484 -0.533142,-1.030983 -1.17332,-1.351261 -2.700936,-1.351261 H 16.304581 L 4.4417273,88.733652 c -6.5245788,6.31365 -18.3342983,17.727838 -26.2438303,25.364848 -7.909525,7.637 -14.609201,14.18069 -14.888167,14.54153 -0.32104,0.41527 -0.50139,1.0777 -0.491357,1.80477 0.03269,2.36834 2.515423,3.63595 4.525972,2.31084 z m 91.070396,-18.01349 c 4.382544,-4.2295 8.181304,-8.01469 8.441684,-8.4115 1.301855,-1.98402 -0.122256,-4.38456 -2.601109,-4.38456 -1.178252,0 -1.784281,0.50315 -8.824052,7.32615 l -5.459215,5.2911 -0.0023,4.02487 c -0.0016,2.21792 0.105104,3.98426 0.237205,3.93441 0.131856,-0.0498 3.82545,-3.55096 8.208002,-7.78047 z M 54.11745,101.99219 c 3.560139,-3.592928 3.718399,-3.799918 3.718399,-4.863278 0,-1.99769 -1.978137,-3.49381 -3.838679,-2.9033 -0.346386,0.10994 -1.394875,0.93455 -2.329969,1.83248 l -1.700182,1.6326 v 4.027068 c 0,2.2149 0.09721,4.02708 0.216016,4.02708 0.118811,0 1.889301,-1.68869 3.934415,-3.75265 z M -6.0218125,88.233532 C 11.345629,71.178324 11.802234,70.756754 14.172699,69.588156 c 2.463123,-1.214273 4.542511,-1.780204 7.609689,-2.071071 3.524052,-0.334192 8.96746,0.206401 12.243482,1.215921 0.448869,0.13832 0.474489,-0.808173 0.468366,-17.30548 -0.0054,-15.217396 -0.125741,-19.166828 -0.59716,-19.638249 -0.05961,-0.05962 -4.984927,0.680857 -10.945111,1.645519 -5.960196,0.96466 -10.984203,1.755733 -11.164468,1.757938 -0.220469,0.0027 -0.353702,0.688625 -0.407011,2.095445 -0.07468,1.970138 -0.118588,2.102331 -0.757597,2.279332 -1.0497195,0.290769 -6.3928472,0.273911 -7.1728109,-0.02263 -0.6055893,-0.230242 -0.6960108,-0.424133 -0.6960108,-1.492364 0,-0.898731 -0.106781,-1.227741 -0.3984648,-1.227741 -1.1841375,0 -15.8239335,2.531831 -16.7253605,2.892513 -2.603279,1.041624 -4.231769,4.361178 -4.502048,9.177114 -0.219553,3.911905 0.214894,51.462247 0.469312,51.367417 0.117196,-0.0436 5.688498,-5.456418 12.3806815,-12.028288 z m -112.0339775,64.581358 -21.90684,-11.5332 -16.35192,-3.63741 c -8.99356,-2.00058 -16.10773,-3.65325 -15.80927,-3.67261 0.29848,-0.0194 14.50674,-1.04416 31.57391,-2.27736 l 31.03123,-2.2422 17.778158,4.26697 c 12.861255,3.08684 17.910483,4.40493 18.25658,4.76586 0.263129,0.27439 5.505101,5.68602 11.648818,12.02582 9.030536,9.31876 11.076088,11.56192 10.678079,11.70958 -0.388948,0.1443 -26.355421,1.3854 -42.142847,2.01427 l -2.84905,0.11349 z"
       style="fill:#ffffff;stroke-width:0.27133885;fill-opacity:1;filter:url(#filter1634)" />
  </g>
</svg>
