<?xml version="1.0" encoding="UTF-8" standalone="no"?>
<svg
   xmlns:dc="http://purl.org/dc/elements/1.1/"
   xmlns:cc="http://creativecommons.org/ns#"
   xmlns:rdf="http://www.w3.org/1999/02/22-rdf-syntax-ns#"
   xmlns:svg="http://www.w3.org/2000/svg"
   xmlns="http://www.w3.org/2000/svg"
   id="svg8"
   version="1.1"
   viewBox="0 0 4.9115229 14.37678"
   height="14.37678mm"
   width="4.9115229mm">
  <defs
     id="defs2" />
  <metadata
     id="metadata5">
    <rdf:RDF>
      <cc:Work
         rdf:about="">
        <dc:format>image/svg+xml</dc:format>
        <dc:type
           rdf:resource="http://purl.org/dc/dcmitype/StillImage" />
        <dc:title></dc:title>
      </cc:Work>
    </rdf:RDF>
  </metadata>
  <g
     transform="translate(-39.877653,-102.42453)"
     id="layer1">
    <path
       style="fill:#ffffff;fill-opacity:1;fill-rule:evenodd;stroke:#000000;stroke-width:0.1778;stroke-linecap:round;stroke-linejoin:round;stroke-miterlimit:10;stroke-opacity:1"
       d="m 44.599514,103.11701 v -0.20119 h -0.303168 v -0.40239 h -3.927409 v 0.40239 h -0.30179 v 0.20119 h -0.09095 v 6.44509 H 40.114 v 0.20256 h 0.02343 v 0.56362 h 0.604959 v 0.32246 h -0.603581 l -0.172255,0.11989 v 0.40377 h 0.0096 v 4.1286 h -0.0096 l 0.01378,0.50437 h 1.12448 l 0.01792,0.61184 0.0028,0.0248 0.01929,0.0813 0.0083,0.0179 0.01102,0.0152 0.03721,0.0565 0.02756,0.0248 0.0565,0.0358 0.01516,0.01 0.01929,0.008 0.07993,0.0179 0.02481,0.001 h 1.816254 l 0.02481,-0.001 0.08131,-0.0179 0.01929,-0.008 0.01516,-0.01 0.0565,-0.0358 0.01378,-0.0124 0.0124,-0.0124 0.03721,-0.0565 0.01102,-0.0152 0.0083,-0.0179 0.02067,-0.0813 0.0014,-0.0248 0.01929,-0.61184 h 1.124479 l 0.0124,-0.50437 h -0.0097 v -4.12861 h 0.0097 l 0.0014,-0.40377 -0.172256,-0.11989 h -0.604958 l -0.0028,-0.32246 h 0.609093 v -0.56362 h 0.02343 v -0.20256 h 0.136426 V 103.117 h -0.08956 m -3.235634,13.29532 -0.01791,-0.60496 h 1.974729 l -0.01929,0.60496 -0.0124,0.0358 -0.0055,0.007 -0.03169,0.0152 -0.01102,0.001 h -1.816253 l -0.03583,-0.0124 -0.0055,-0.004 -0.01792,-0.0331 -0.0014,-0.01"
       id="path1966" />
    <path
       style="fill:none;stroke:#000000;stroke-width:0.127;stroke-linecap:round;stroke-linejoin:round;stroke-miterlimit:10;stroke-opacity:1"
       d="m 40.742386,110.65074 h 3.180511"
       id="path1968" />
    <path
       style="fill:none;stroke:#000000;stroke-width:0.127;stroke-linecap:round;stroke-linejoin:round;stroke-miterlimit:10;stroke-opacity:1"
       d="m 40.742386,110.32828 h 3.177756"
       id="path1970" />
    <path
       style="fill:none;stroke:#000000;stroke-width:0.127;stroke-linecap:round;stroke-linejoin:round;stroke-miterlimit:10;stroke-opacity:1"
       d="m 40.137427,109.76466 h 4.391807"
       id="path1972" />
    <path
       style="fill:none;stroke:#000000;stroke-width:0.127;stroke-linecap:round;stroke-linejoin:round;stroke-miterlimit:10;stroke-opacity:1"
       d="M 44.296346,102.91582 H 40.368937"
       id="path1974" />
    <path
       style="fill:none;stroke:#000000;stroke-width:0.127;stroke-linecap:round;stroke-linejoin:round;stroke-miterlimit:10;stroke-opacity:1"
       d="m 40.114,109.5621 h 4.438661"
       id="path1976" />
    <path
       style="fill:none;stroke:#000000;stroke-width:0.127;stroke-linecap:round;stroke-linejoin:round;stroke-miterlimit:10;stroke-opacity:1"
       d="M 44.599514,103.11701 H 40.067147"
       id="path1978" />
    <path
       style="fill:none;stroke:#000000;stroke-width:0.127;stroke-linecap:round;stroke-linejoin:round;stroke-miterlimit:10;stroke-opacity:1"
       d="m 41.10481,115.80737 h 0.241156"
       id="path1980" />
    <path
       style="fill:none;stroke:#000000;stroke-width:0.127;stroke-linecap:round;stroke-linejoin:round;stroke-miterlimit:10;stroke-opacity:1"
       d="m 43.320695,115.80737 h 0.241157"
       id="path1982" />
    <path
       style="fill:none;stroke:#000000;stroke-width:0.127;stroke-linecap:round;stroke-linejoin:round;stroke-miterlimit:10;stroke-opacity:1"
       d="m 39.976196,115.303 h 4.712891"
       id="path1984" />
    <path
       style="fill:none;stroke:#000000;stroke-width:0.127;stroke-linecap:round;stroke-linejoin:round;stroke-miterlimit:10;stroke-opacity:1"
       d="m 39.976196,111.1744 h 4.712891"
       id="path1986" />
    <path
       style="fill:none;stroke:#000000;stroke-width:0.127;stroke-linecap:round;stroke-linejoin:round;stroke-miterlimit:10;stroke-opacity:1"
       d="m 39.96655,110.77063 h 4.733561"
       id="path1988" />
  </g>
</svg>
