<?xml version="1.0" encoding="UTF-8" standalone="no"?>
<svg
   xmlns:dc="http://purl.org/dc/elements/1.1/"
   xmlns:cc="http://creativecommons.org/ns#"
   xmlns:rdf="http://www.w3.org/1999/02/22-rdf-syntax-ns#"
   xmlns:svg="http://www.w3.org/2000/svg"
   xmlns="http://www.w3.org/2000/svg"
   id="svg8"
   version="1.1"
   viewBox="0 0 13.106305 13.454441"
   height="13.454441mm"
   width="13.106305mm">
  <defs
     id="defs2" />
  <metadata
     id="metadata5">
    <rdf:RDF>
      <cc:Work
         rdf:about="">
        <dc:format>image/svg+xml</dc:format>
        <dc:type
           rdf:resource="http://purl.org/dc/dcmitype/StillImage" />
        <dc:title></dc:title>
      </cc:Work>
    </rdf:RDF>
  </metadata>
  <g
     transform="translate(-132.46218,-91.79058)"
     id="layer1">
    <path
       id="path1282"
       d="m 145.44138,98.518491 -0.0317,0.6463"
       style="fill:none;stroke:#000000;stroke-width:0.25400001;stroke-linecap:round;stroke-linejoin:round;stroke-miterlimit:10;stroke-opacity:1" />
    <path
       id="path1284"
       d="m 145.40968,99.164791 -0.0951,0.64078"
       style="fill:none;stroke:#000000;stroke-width:0.25400001;stroke-linecap:round;stroke-linejoin:round;stroke-miterlimit:10;stroke-opacity:1" />
    <path
       id="path1286"
       d="m 145.3146,99.805571 -0.15848,0.628389"
       style="fill:none;stroke:#000000;stroke-width:0.25400001;stroke-linecap:round;stroke-linejoin:round;stroke-miterlimit:10;stroke-opacity:1" />
    <path
       id="path1288"
       d="m 145.15612,100.43396 -0.21773,0.61047"
       style="fill:none;stroke:#000000;stroke-width:0.25400001;stroke-linecap:round;stroke-linejoin:round;stroke-miterlimit:10;stroke-opacity:1" />
    <path
       id="path1290"
       d="m 144.93839,101.04443 -0.19568,0.41341"
       style="fill:none;stroke:#000000;stroke-width:0.25400001;stroke-linecap:round;stroke-linejoin:round;stroke-miterlimit:10;stroke-opacity:1" />
    <path
       id="path1292"
       d="m 141.50432,104.55016 -0.1378,0.0661"
       style="fill:none;stroke:#000000;stroke-width:0.25400001;stroke-linecap:round;stroke-linejoin:round;stroke-miterlimit:10;stroke-opacity:1" />
    <path
       id="path1294"
       d="m 141.36652,104.61631 -0.61047,0.21773"
       style="fill:none;stroke:#000000;stroke-width:0.25400001;stroke-linecap:round;stroke-linejoin:round;stroke-miterlimit:10;stroke-opacity:1" />
    <path
       id="path1296"
       d="m 140.75605,104.83404 -0.62839,0.15709"
       style="fill:none;stroke:#000000;stroke-width:0.25400001;stroke-linecap:round;stroke-linejoin:round;stroke-miterlimit:10;stroke-opacity:1" />
    <path
       id="path1298"
       d="m 140.12766,104.99113 -0.63941,0.0951"
       style="fill:none;stroke:#000000;stroke-width:0.25400001;stroke-linecap:round;stroke-linejoin:round;stroke-miterlimit:10;stroke-opacity:1" />
    <path
       id="path1300"
       d="m 139.48825,105.08622 -0.64767,0.0317"
       style="fill:none;stroke:#000000;stroke-width:0.25400001;stroke-linecap:round;stroke-linejoin:round;stroke-miterlimit:10;stroke-opacity:1" />
    <path
       id="path1302"
       d="m 138.84058,105.11791 -0.30455,-0.0152"
       style="fill:none;stroke:#000000;stroke-width:0.25400001;stroke-linecap:round;stroke-linejoin:round;stroke-miterlimit:10;stroke-opacity:1" />
    <path
       id="path1304"
       d="m 134.39916,103.38985 -0.22462,-0.20395"
       style="fill:none;stroke:#000000;stroke-width:0.25400001;stroke-linecap:round;stroke-linejoin:round;stroke-miterlimit:10;stroke-opacity:1" />
    <path
       id="path1306"
       d="m 134.17454,103.1859 -0.43546,-0.48093"
       style="fill:none;stroke:#000000;stroke-width:0.25400001;stroke-linecap:round;stroke-linejoin:round;stroke-miterlimit:10;stroke-opacity:1" />
    <path
       id="path1308"
       d="m 133.73908,102.70497 -0.38585,-0.51952"
       style="fill:none;stroke:#000000;stroke-width:0.25400001;stroke-linecap:round;stroke-linejoin:round;stroke-miterlimit:10;stroke-opacity:1" />
    <path
       id="path1310"
       d="m 133.35323,102.18545 -0.33349,-0.55535"
       style="fill:none;stroke:#000000;stroke-width:0.25400001;stroke-linecap:round;stroke-linejoin:round;stroke-miterlimit:10;stroke-opacity:1" />
    <path
       id="path1312"
       d="m 133.01974,101.6301 -0.27698,-0.58567"
       style="fill:none;stroke:#000000;stroke-width:0.25400001;stroke-linecap:round;stroke-linejoin:round;stroke-miterlimit:10;stroke-opacity:1" />
    <path
       id="path1314"
       d="m 132.74276,101.04443 -0.051,-0.14331"
       style="fill:none;stroke:#000000;stroke-width:0.25400001;stroke-linecap:round;stroke-linejoin:round;stroke-miterlimit:10;stroke-opacity:1" />
    <path
       id="path1316"
       d="m 132.58979,96.422492 0.15297,-0.429948"
       style="fill:none;stroke:#000000;stroke-width:0.25400001;stroke-linecap:round;stroke-linejoin:round;stroke-miterlimit:10;stroke-opacity:1" />
    <path
       id="path1318"
       d="m 132.74276,95.992544 0.27698,-0.585666"
       style="fill:none;stroke:#000000;stroke-width:0.25400001;stroke-linecap:round;stroke-linejoin:round;stroke-miterlimit:10;stroke-opacity:1" />
    <path
       id="path1320"
       d="m 133.01974,95.406878 0.33349,-0.55535"
       style="fill:none;stroke:#000000;stroke-width:0.25400001;stroke-linecap:round;stroke-linejoin:round;stroke-miterlimit:10;stroke-opacity:1" />
    <path
       id="path1322"
       d="m 133.35323,94.851528 0.38585,-0.51952"
       style="fill:none;stroke:#000000;stroke-width:0.25400001;stroke-linecap:round;stroke-linejoin:round;stroke-miterlimit:10;stroke-opacity:1" />
    <path
       id="path1324"
       d="m 133.73908,94.332008 0.43546,-0.480935"
       style="fill:none;stroke:#000000;stroke-width:0.25400001;stroke-linecap:round;stroke-linejoin:round;stroke-miterlimit:10;stroke-opacity:1" />
    <path
       id="path1326"
       d="m 134.17454,93.851073 v 0"
       style="fill:none;stroke:#000000;stroke-width:0.25400001;stroke-linecap:round;stroke-linejoin:round;stroke-miterlimit:10;stroke-opacity:1" />
    <path
       id="path1328"
       d="m 138.23286,91.948002 0.60772,-0.03032"
       style="fill:none;stroke:#000000;stroke-width:0.25400001;stroke-linecap:round;stroke-linejoin:round;stroke-miterlimit:10;stroke-opacity:1" />
    <path
       id="path1330"
       d="m 138.84058,91.917685 0.64767,0.03307"
       style="fill:none;stroke:#000000;stroke-width:0.25400001;stroke-linecap:round;stroke-linejoin:round;stroke-miterlimit:10;stroke-opacity:1" />
    <path
       id="path1332"
       d="m 139.48825,91.950758 0.63941,0.09371"
       style="fill:none;stroke:#000000;stroke-width:0.25400001;stroke-linecap:round;stroke-linejoin:round;stroke-miterlimit:10;stroke-opacity:1" />
    <path
       id="path1334"
       d="m 140.12766,92.044464 0.62839,0.158475"
       style="fill:none;stroke:#000000;stroke-width:0.25400001;stroke-linecap:round;stroke-linejoin:round;stroke-miterlimit:10;stroke-opacity:1" />
    <path
       id="path1336"
       d="m 140.75605,92.202939 0.46715,0.166743"
       style="fill:none;stroke:#000000;stroke-width:0.25400001;stroke-linecap:round;stroke-linejoin:round;stroke-miterlimit:10;stroke-opacity:1" />
    <path
       id="path1338"
       d="m 144.60353,95.309037 0.0579,0.09784"
       style="fill:none;stroke:#000000;stroke-width:0.25400001;stroke-linecap:round;stroke-linejoin:round;stroke-miterlimit:10;stroke-opacity:1" />
    <path
       id="path1340"
       d="m 144.66141,95.406878 0.27698,0.585666"
       style="fill:none;stroke:#000000;stroke-width:0.25400001;stroke-linecap:round;stroke-linejoin:round;stroke-miterlimit:10;stroke-opacity:1" />
    <path
       id="path1342"
       d="m 144.93839,95.992544 0.21773,0.610471"
       style="fill:none;stroke:#000000;stroke-width:0.25400001;stroke-linecap:round;stroke-linejoin:round;stroke-miterlimit:10;stroke-opacity:1" />
    <path
       id="path1344"
       d="m 145.15612,96.603015 0.15848,0.628386"
       style="fill:none;stroke:#000000;stroke-width:0.25400001;stroke-linecap:round;stroke-linejoin:round;stroke-miterlimit:10;stroke-opacity:1" />
    <path
       id="path1346"
       d="m 145.3146,97.231401 0.0951,0.63941"
       style="fill:none;stroke:#000000;stroke-width:0.25400001;stroke-linecap:round;stroke-linejoin:round;stroke-miterlimit:10;stroke-opacity:1" />
    <path
       id="path1348"
       d="m 145.40968,97.870811 0.0165,0.34313"
       style="fill:none;stroke:#000000;stroke-width:0.25400001;stroke-linecap:round;stroke-linejoin:round;stroke-miterlimit:10;stroke-opacity:1" />
    <path
       id="path1350"
       d="m 134.75883,95.331085 c -0.22187,0.498851 -0.39137,1.021127 -0.50437,1.557184 -0.11299,0.534682 -0.16949,1.080382 -0.16812,1.627462 0.001,0.54708 0.0606,1.09279 0.17639,1.627459 0.11576,0.53468 0.28663,1.05558 0.51126,1.55443 l 0.66834,0.17915 0.31144,-0.31144 6.17637,-0.003 0.33624,0.29766 0.66008,-0.16261 c 0.22048,-0.50161 0.38723,-1.02251 0.50023,-1.55856 0.11162,-0.534679 0.16812,-1.080389 0.16812,-1.627469 0,-0.54708 -0.0579,-1.09278 -0.17088,-1.62746 -0.11438,-0.534679 -0.2825,-1.056955 -0.50436,-1.557183 l -0.67524,-0.166743 -0.31281,0.311437 -6.17775,-0.0055 -0.33486,-0.297657 -0.66008,0.162608"
       style="fill:#ffffff;fill-opacity:1;fill-rule:evenodd;stroke:#000000;stroke-width:0.25400001;stroke-linecap:round;stroke-linejoin:round;stroke-miterlimit:10;stroke-opacity:1" />
    <path
       id="path1352"
       d="m 134.12631,97.010914 h 9.42853 v 3.015146 h -9.42853 z m 0,0"
       style="fill:#ffffff;fill-opacity:1;fill-rule:evenodd;stroke:#000000;stroke-width:0.25400001;stroke-linecap:round;stroke-linejoin:round;stroke-miterlimit:10;stroke-opacity:1" />
    <path
       id="path1354"
       d="m 135.56498,97.010914 v 3.015146"
       style="fill:none;stroke:#000000;stroke-width:0.17779998;stroke-linecap:round;stroke-linejoin:round;stroke-miterlimit:10;stroke-opacity:1" />
    <path
       id="path1356"
       d="m 142.11617,97.010914 v 3.015146"
       style="fill:none;stroke:#000000;stroke-width:0.17779998;stroke-linecap:round;stroke-linejoin:round;stroke-miterlimit:10;stroke-opacity:1" />
    <path
       id="path1358"
       d="m 140.55348,92.551583 h -3.4699 c -0.006,0.09922 -0.0138,0.199815 -0.0262,0.299034 -0.011,0.100597 -0.0248,0.199816 -0.0413,0.297656 -0.0165,0.09922 -0.0358,0.198437 -0.0565,0.296278 -0.022,0.09784 -0.0469,0.195682 -0.073,0.292144 l -0.20946,0.209462 -0.54295,0.832335 c -0.0289,0.191548 -0.062,0.381717 -0.1006,0.571886 -0.0372,0.188792 -0.0786,0.378961 -0.12402,0.566374 -0.0455,0.187413 -0.0951,0.374827 -0.14883,0.560861 -0.0537,0.186036 -0.11162,0.370693 -0.17225,0.553972 l -0.0358,2.955896 -0.0221,0.0524 c 0,0.11162 10e-4,0.22324 0.004,0.33486 0.003,0.11163 0.007,0.22325 0.0124,0.33487 0.006,0.11162 0.0124,0.22324 0.0207,0.33486 0.008,0.11024 0.0179,0.22187 0.0276,0.33349 0.0317,0.10748 0.0661,0.21635 0.10335,0.32246 0.0358,0.10611 0.0758,0.21222 0.11851,0.31695 0.0427,0.10473 0.0868,0.20808 0.13505,0.31005 0.0482,0.10336 0.0978,0.20395 0.15158,0.30317 0.008,0.0152 0.0165,0.0317 0.0262,0.0469 0.008,0.0151 0.0165,0.0303 0.0262,0.0455 0.01,0.0152 0.0179,0.0303 0.0276,0.0455 0.01,0.0152 0.0179,0.0289 0.0276,0.0441 0.0207,0.0248 0.0427,0.0482 0.0662,0.0703 0.0234,0.0207 0.0482,0.04 0.0758,0.0579 0.0262,0.0165 0.0551,0.0317 0.0841,0.0441 0.0289,0.0138 0.0593,0.0234 0.091,0.0317 l 0.47818,0.11714 0.17639,0.48369 0.006,0.0179 0.008,0.0152 0.01,0.0152 0.0124,0.011 0.0138,0.0124 0.0165,0.007 0.0152,0.007 0.0179,0.003 c 0.25355,0.0455 0.50849,0.0799 0.76481,0.10336 0.25631,0.022 0.514,0.0345 0.7717,0.0345 0.25769,0 0.51538,-0.0124 0.7717,-0.0345 0.25631,-0.0234 0.51263,-0.0579 0.76481,-0.10336 l 0.0165,-0.006 0.0152,-0.008 0.0138,-0.008 0.0138,-0.011 0.0124,-0.0124 0.01,-0.0138 0.011,-0.0124 0.007,-0.0165 0.17777,-0.48369 0.4768,-0.11714 c 0.0317,-0.008 0.062,-0.0179 0.0909,-0.0317 0.0303,-0.0124 0.0579,-0.0276 0.0841,-0.0441 0.0276,-0.0179 0.0524,-0.0372 0.0772,-0.0579 0.0234,-0.022 0.0455,-0.0455 0.0648,-0.0703 0.01,-0.0138 0.0207,-0.0289 0.0303,-0.0441 0.01,-0.0138 0.0193,-0.0289 0.0276,-0.0441 0.01,-0.0152 0.0179,-0.0303 0.0262,-0.0468 0.008,-0.0152 0.0165,-0.0303 0.0248,-0.0469 0.0524,-0.0992 0.10336,-0.19981 0.15021,-0.30317 0.0482,-0.10197 0.0937,-0.20532 0.13505,-0.31005 0.0427,-0.10473 0.0827,-0.21084 0.11989,-0.31695 0.0358,-0.10611 0.0703,-0.21498 0.10197,-0.32246 0.011,-0.11162 0.0207,-0.22325 0.0276,-0.33349 0.008,-0.11162 0.0152,-0.22324 0.0207,-0.33486 0.006,-0.11162 0.01,-0.22324 0.0124,-0.33487 0.003,-0.11162 0.004,-0.22324 0.004,-0.33486 l -0.0303,-0.0524 -0.0276,-2.955894 c -0.0606,-0.183278 -0.11851,-0.367936 -0.17226,-0.553971 -0.0537,-0.186035 -0.10335,-0.373449 -0.14882,-0.560862 -0.0455,-0.187413 -0.0868,-0.377582 -0.12403,-0.566373 -0.0372,-0.19017 -0.0717,-0.380339 -0.10059,-0.571886 l -0.54157,-0.832335 -0.20947,-0.209462 c -0.0276,-0.09646 -0.051,-0.194304 -0.073,-0.292144 -0.022,-0.09784 -0.04,-0.197059 -0.0565,-0.296279 -0.0165,-0.09784 -0.0303,-0.197059 -0.0427,-0.297655 -0.011,-0.09922 -0.0193,-0.199816 -0.0262,-0.299035"
       style="fill:#ffffff;fill-opacity:1;fill-rule:evenodd;stroke:#000000;stroke-width:0.25400001;stroke-linecap:round;stroke-linejoin:round;stroke-miterlimit:10;stroke-opacity:1" />
    <path
       id="path1360"
       d="m 137.8415,101.56395 h 2.00091 v 1.00046 h -2.00091 z m 0,0"
       style="fill:#ffffff;fill-opacity:1;fill-rule:evenodd;stroke:#ff0000;stroke-width:0.25400001;stroke-linecap:round;stroke-linejoin:round;stroke-miterlimit:10;stroke-opacity:1" />
  </g>
</svg>
