<?xml version="1.0" encoding="UTF-8" standalone="no"?>
<svg
   xmlns:dc="http://purl.org/dc/elements/1.1/"
   xmlns:cc="http://creativecommons.org/ns#"
   xmlns:rdf="http://www.w3.org/1999/02/22-rdf-syntax-ns#"
   xmlns:svg="http://www.w3.org/2000/svg"
   xmlns="http://www.w3.org/2000/svg"
   id="svg8"
   version="1.1"
   viewBox="0 0 7.7615199 9.5530043"
   height="9.5530043mm"
   width="7.7615199mm">
  <defs
     id="defs2" />
  <metadata
     id="metadata5">
    <rdf:RDF>
      <cc:Work
         rdf:about="">
        <dc:format>image/svg+xml</dc:format>
        <dc:type
           rdf:resource="http://purl.org/dc/dcmitype/StillImage" />
        <dc:title></dc:title>
      </cc:Work>
    </rdf:RDF>
  </metadata>
  <g
     transform="translate(-127.65496,-87.360404)"
     id="layer1">
    <path
       id="path1194"
       d="m 129.12277,94.748287 h -0.78962 v -6.624229 l -0.55121,-0.636654 h 7.50755 l -0.55259,0.636654 v 6.624229 h -0.78962 l -0.0248,0.110243 -0.18742,0.463021 -0.25356,0.418924 -0.31419,0.361045 -0.36242,0.292145 -0.40101,0.216352 -0.42719,0.132291 -0.44098,0.0441 -0.44097,-0.0441 -0.42857,-0.132291 -0.40101,-0.216352 -0.36242,-0.292145 -0.31282,-0.361045 -0.25355,-0.418924 -0.18742,-0.463021 -0.0262,-0.110243"
       style="fill:#ffffff;fill-opacity:1;fill-rule:evenodd;stroke:none;stroke-width:0.35277775" />
    <path
       id="path1196"
       d="m 129.12277,94.748287 h -0.78962 v -6.624229 l -0.55121,-0.636654 h 7.50755 l -0.55259,0.636654 v 6.624229 h -0.78962 l -0.0248,0.110243 -0.18742,0.463021 -0.25356,0.418923 -0.31419,0.361046 -0.36242,0.292145 -0.40101,0.216351 -0.42719,0.132292 -0.44098,0.0441 -0.44097,-0.0441 -0.42857,-0.132292 -0.40101,-0.216351 -0.36242,-0.292145 -0.31282,-0.361046 -0.25355,-0.418923 -0.18742,-0.463021 z m 0,0"
       style="fill:none;stroke:#000000;stroke-width:0.25400001;stroke-linecap:round;stroke-linejoin:round;stroke-miterlimit:10;stroke-opacity:1" />
    <path
       id="path1198"
       d="m 128.33315,88.124058 6.40375,3.697276"
       style="fill:none;stroke:#000000;stroke-width:0.17779998;stroke-linecap:round;stroke-linejoin:round;stroke-miterlimit:10;stroke-opacity:1" />
  </g>
</svg>
