<?xml version="1.0" encoding="UTF-8" standalone="no"?>
<svg
   xmlns:dc="http://purl.org/dc/elements/1.1/"
   xmlns:cc="http://creativecommons.org/ns#"
   xmlns:rdf="http://www.w3.org/1999/02/22-rdf-syntax-ns#"
   xmlns:svg="http://www.w3.org/2000/svg"
   xmlns="http://www.w3.org/2000/svg"
   id="svg8"
   version="1.1"
   viewBox="0 0 12.79743 13.036877"
   height="13.036877mm"
   width="12.79743mm">
  <defs
     id="defs2" />
  <metadata
     id="metadata5">
    <rdf:RDF>
      <cc:Work
         rdf:about="">
        <dc:format>image/svg+xml</dc:format>
        <dc:type
           rdf:resource="http://purl.org/dc/dcmitype/StillImage" />
        <dc:title></dc:title>
      </cc:Work>
    </rdf:RDF>
  </metadata>
  <g
     transform="translate(-131.66353,-90.547229)"
     id="layer1">
    <path
       id="path1450"
       d="m 144.33386,97.057398 -0.0303,0.62701"
       style="fill:none;stroke:#000000;stroke-width:0.25400001;stroke-linecap:round;stroke-linejoin:round;stroke-miterlimit:10;stroke-opacity:1" />
    <path
       id="path1452"
       d="m 144.30355,97.684408 -0.0923,0.62149"
       style="fill:none;stroke:#000000;stroke-width:0.25400001;stroke-linecap:round;stroke-linejoin:round;stroke-miterlimit:10;stroke-opacity:1" />
    <path
       id="path1454"
       d="m 144.21122,98.305898 -0.15296,0.61047"
       style="fill:none;stroke:#000000;stroke-width:0.25400001;stroke-linecap:round;stroke-linejoin:round;stroke-miterlimit:10;stroke-opacity:1" />
    <path
       id="path1456"
       d="m 144.05826,98.916368 -0.21222,0.58981"
       style="fill:none;stroke:#000000;stroke-width:0.25400001;stroke-linecap:round;stroke-linejoin:round;stroke-miterlimit:10;stroke-opacity:1" />
    <path
       id="path1458"
       d="m 143.84604,99.506178 -0.22876,0.48506"
       style="fill:none;stroke:#000000;stroke-width:0.25400001;stroke-linecap:round;stroke-linejoin:round;stroke-miterlimit:10;stroke-opacity:1" />
    <path
       id="path1460"
       d="m 140.30448,102.99812 -0.51263,0.18466"
       style="fill:none;stroke:#000000;stroke-width:0.25400001;stroke-linecap:round;stroke-linejoin:round;stroke-miterlimit:10;stroke-opacity:1" />
    <path
       id="path1462"
       d="m 139.79185,103.18278 -0.60909,0.15158"
       style="fill:none;stroke:#000000;stroke-width:0.25400001;stroke-linecap:round;stroke-linejoin:round;stroke-miterlimit:10;stroke-opacity:1" />
    <path
       id="path1464"
       d="m 139.18276,103.33436 -0.6215,0.0923"
       style="fill:none;stroke:#000000;stroke-width:0.25400001;stroke-linecap:round;stroke-linejoin:round;stroke-miterlimit:10;stroke-opacity:1" />
    <path
       id="path1466"
       d="m 138.56126,103.42669 -0.62701,0.0303"
       style="fill:none;stroke:#000000;stroke-width:0.25400001;stroke-linecap:round;stroke-linejoin:round;stroke-miterlimit:10;stroke-opacity:1" />
    <path
       id="path1468"
       d="m 137.93425,103.45701 -0.61873,-0.0289"
       style="fill:none;stroke:#000000;stroke-width:0.25400001;stroke-linecap:round;stroke-linejoin:round;stroke-miterlimit:10;stroke-opacity:1" />
    <path
       id="path1470"
       d="m 133.29716,101.46023 -0.31006,-0.34175"
       style="fill:none;stroke:#000000;stroke-width:0.25400001;stroke-linecap:round;stroke-linejoin:round;stroke-miterlimit:10;stroke-opacity:1" />
    <path
       id="path1472"
       d="m 132.9871,101.11848 -0.37483,-0.50574"
       style="fill:none;stroke:#000000;stroke-width:0.25400001;stroke-linecap:round;stroke-linejoin:round;stroke-miterlimit:10;stroke-opacity:1" />
    <path
       id="path1474"
       d="m 132.61227,100.61274 -0.32246,-0.53743"
       style="fill:none;stroke:#000000;stroke-width:0.25400001;stroke-linecap:round;stroke-linejoin:round;stroke-miterlimit:10;stroke-opacity:1" />
    <path
       id="path1476"
       d="m 132.28981,100.07531 -0.26872,-0.569132"
       style="fill:none;stroke:#000000;stroke-width:0.25400001;stroke-linecap:round;stroke-linejoin:round;stroke-miterlimit:10;stroke-opacity:1" />
    <path
       id="path1478"
       d="m 132.02109,99.506178 -0.21222,-0.58981"
       style="fill:none;stroke:#000000;stroke-width:0.25400001;stroke-linecap:round;stroke-linejoin:round;stroke-miterlimit:10;stroke-opacity:1" />
    <path
       id="path1480"
       d="m 131.80887,98.916368 -0.0179,-0.073"
       style="fill:none;stroke:#000000;stroke-width:0.25400001;stroke-linecap:round;stroke-linejoin:round;stroke-miterlimit:10;stroke-opacity:1" />
    <path
       id="path1482"
       d="m 132.1272,94.382624 0.16261,-0.341749"
       style="fill:none;stroke:#000000;stroke-width:0.25400001;stroke-linecap:round;stroke-linejoin:round;stroke-miterlimit:10;stroke-opacity:1" />
    <path
       id="path1484"
       d="m 132.28981,94.040875 0.32246,-0.538818"
       style="fill:none;stroke:#000000;stroke-width:0.25400001;stroke-linecap:round;stroke-linejoin:round;stroke-miterlimit:10;stroke-opacity:1" />
    <path
       id="path1486"
       d="m 132.61227,93.502057 0.37483,-0.50436"
       style="fill:none;stroke:#000000;stroke-width:0.25400001;stroke-linecap:round;stroke-linejoin:round;stroke-miterlimit:10;stroke-opacity:1" />
    <path
       id="path1488"
       d="m 132.9871,92.997697 0.42168,-0.465776"
       style="fill:none;stroke:#000000;stroke-width:0.25400001;stroke-linecap:round;stroke-linejoin:round;stroke-miterlimit:10;stroke-opacity:1" />
    <path
       id="path1490"
       d="m 133.40878,92.531921 0.4644,-0.421679"
       style="fill:none;stroke:#000000;stroke-width:0.25400001;stroke-linecap:round;stroke-linejoin:round;stroke-miterlimit:10;stroke-opacity:1" />
    <path
       id="path1492"
       d="m 133.87318,92.110242 0.12678,-0.09371"
       style="fill:none;stroke:#000000;stroke-width:0.25400001;stroke-linecap:round;stroke-linejoin:round;stroke-miterlimit:10;stroke-opacity:1" />
    <path
       id="path1494"
       d="m 138.26636,90.674326 0.2949,0.01378"
       style="fill:none;stroke:#000000;stroke-width:0.25400001;stroke-linecap:round;stroke-linejoin:round;stroke-miterlimit:10;stroke-opacity:1" />
    <path
       id="path1496"
       d="m 138.56126,90.688106 0.6215,0.09233"
       style="fill:none;stroke:#000000;stroke-width:0.25400001;stroke-linecap:round;stroke-linejoin:round;stroke-miterlimit:10;stroke-opacity:1" />
    <path
       id="path1498"
       d="m 139.18276,90.780434 0.60909,0.152963"
       style="fill:none;stroke:#000000;stroke-width:0.25400001;stroke-linecap:round;stroke-linejoin:round;stroke-miterlimit:10;stroke-opacity:1" />
    <path
       id="path1500"
       d="m 139.79185,90.933397 0.59118,0.21084"
       style="fill:none;stroke:#000000;stroke-width:0.25400001;stroke-linecap:round;stroke-linejoin:round;stroke-miterlimit:10;stroke-opacity:1" />
    <path
       id="path1502"
       d="m 140.38303,91.144237 0.56775,0.268717"
       style="fill:none;stroke:#000000;stroke-width:0.25400001;stroke-linecap:round;stroke-linejoin:round;stroke-miterlimit:10;stroke-opacity:1" />
    <path
       id="path1504"
       d="m 140.95078,91.412954 0.20671,0.124023"
       style="fill:none;stroke:#000000;stroke-width:0.25400001;stroke-linecap:round;stroke-linejoin:round;stroke-miterlimit:10;stroke-opacity:1" />
    <path
       id="path1506"
       d="m 143.9866,94.999988 0.0717,0.19981"
       style="fill:none;stroke:#000000;stroke-width:0.25400001;stroke-linecap:round;stroke-linejoin:round;stroke-miterlimit:10;stroke-opacity:1" />
    <path
       id="path1508"
       d="m 144.05826,95.199798 0.15296,0.60909"
       style="fill:none;stroke:#000000;stroke-width:0.25400001;stroke-linecap:round;stroke-linejoin:round;stroke-miterlimit:10;stroke-opacity:1" />
    <path
       id="path1510"
       d="m 144.21122,95.808888 0.0923,0.6215"
       style="fill:none;stroke:#000000;stroke-width:0.25400001;stroke-linecap:round;stroke-linejoin:round;stroke-miterlimit:10;stroke-opacity:1" />
    <path
       id="path1512"
       d="m 144.30355,96.430388 0.0303,0.62701"
       style="fill:none;stroke:#000000;stroke-width:0.25400001;stroke-linecap:round;stroke-linejoin:round;stroke-miterlimit:10;stroke-opacity:1" />
    <path
       id="path1514"
       d="m 133.99031,94.30683 h 7.89891 v 5.499748 h -7.89891 z m 0,0"
       style="fill:#ffffff;fill-opacity:1;fill-rule:evenodd;stroke:#000000;stroke-width:0.25400001;stroke-linecap:round;stroke-linejoin:round;stroke-miterlimit:10;stroke-opacity:1" />
    <path
       id="path1516"
       d="m 133.82219,95.726218 h 8.22275 v 2.66375 h -8.22275 z m 0,0"
       style="fill:#ffffff;fill-opacity:1;fill-rule:evenodd;stroke:#000000;stroke-width:0.17779998;stroke-linecap:round;stroke-linejoin:round;stroke-miterlimit:10;stroke-opacity:1" />
    <path
       id="path1518"
       d="m 136.24202,91.454295 0.23427,-0.279742 h 2.93247 l 0.23564,0.279742 0.26045,0.853006 h 0.0579 c 0.0207,0.02343 0.04,0.04823 0.0579,0.07441 0.0179,0.0248 0.0331,0.05237 0.0482,0.07993 0.0152,0.02618 0.0276,0.05512 0.0386,0.08406 0.0124,0.02894 0.0221,0.05788 0.0289,0.08819 0.0579,0.217726 0.11162,0.436835 0.16123,0.655944 0.051,0.220489 0.0965,0.439597 0.13918,0.661458 0.0427,0.220489 0.0813,0.442349 0.11713,0.665598 0.0358,0.221861 0.0675,0.445097 0.0951,0.666967 l 0.15572,0.0744 v 3.88607 l -1.15618,2.016072 c -0.0248,0.0469 -0.0565,0.0882 -0.0937,0.1254 -0.0372,0.0372 -0.0786,0.0703 -0.12403,0.0965 -0.0468,0.0262 -0.0951,0.0469 -0.14607,0.0593 -0.051,0.0138 -0.10335,0.0207 -0.15572,0.0207 h -2.3716 c -0.0524,0 -0.10611,-0.007 -0.15572,-0.0207 -0.051,-0.0124 -0.1006,-0.0331 -0.14607,-0.0593 -0.0455,-0.0262 -0.0868,-0.0593 -0.12402,-0.0965 -0.0372,-0.0372 -0.0689,-0.0785 -0.0951,-0.1254 l -1.15617,-2.016072 v -3.88607 l 0.15709,-0.0744 c 0.0276,-0.22187 0.0593,-0.445106 0.0951,-0.666967 0.0344,-0.223249 0.073,-0.445109 0.11575,-0.665598 0.0427,-0.221861 0.0896,-0.440969 0.13919,-0.661458 0.051,-0.219109 0.10473,-0.438218 0.16123,-0.655944 0.008,-0.03032 0.0179,-0.05926 0.0289,-0.08819 0.0124,-0.02894 0.0248,-0.05788 0.04,-0.08406 0.0138,-0.02756 0.0303,-0.05512 0.0482,-0.07993 0.0165,-0.02618 0.0358,-0.05099 0.0565,-0.07441 h 0.0579 l 0.26182,-0.853006"
       style="fill:#ffffff;fill-opacity:1;fill-rule:evenodd;stroke:#000000;stroke-width:0.25400001;stroke-linecap:round;stroke-linejoin:round;stroke-miterlimit:10;stroke-opacity:1" />
    <path
       id="path1520"
       d="m 135.9802,92.307301 h 3.92465"
       style="fill:none;stroke:#000000;stroke-width:0.17779998;stroke-linecap:round;stroke-linejoin:round;stroke-miterlimit:10;stroke-opacity:1" />
    <path
       id="path1522"
       d="m 139.6444,91.454295 h -3.40238"
       style="fill:none;stroke:#000000;stroke-width:0.17779998;stroke-linecap:round;stroke-linejoin:round;stroke-miterlimit:10;stroke-opacity:1" />
    <path
       id="path1524"
       d="m 136.93931,99.806578 h 2.00091 v 1.000462 h -2.00091 z m 0,0"
       style="fill:#ffffff;fill-opacity:1;fill-rule:evenodd;stroke:#ff0000;stroke-width:0.25400001;stroke-linecap:round;stroke-linejoin:round;stroke-miterlimit:10;stroke-opacity:1" />
  </g>
</svg>
