<?xml version="1.0" encoding="UTF-8" standalone="no"?>
<svg
   xmlns:dc="http://purl.org/dc/elements/1.1/"
   xmlns:cc="http://creativecommons.org/ns#"
   xmlns:rdf="http://www.w3.org/1999/02/22-rdf-syntax-ns#"
   xmlns:svg="http://www.w3.org/2000/svg"
   xmlns="http://www.w3.org/2000/svg"
   id="svg8"
   version="1.1"
   viewBox="0 0 7.3650673 6.8682444"
   height="6.8682442mm"
   width="7.3650675mm">
  <defs
     id="defs2" />
  <metadata
     id="metadata5">
    <rdf:RDF>
      <cc:Work
         rdf:about="">
        <dc:format>image/svg+xml</dc:format>
        <dc:type
           rdf:resource="http://purl.org/dc/dcmitype/StillImage" />
        <dc:title></dc:title>
      </cc:Work>
    </rdf:RDF>
  </metadata>
  <g
     transform="translate(-122.40168,-90.07117)"
     id="layer1">
    <path
       id="path1620"
       d="m 124.29561,96.811474 h -0.65595 v -1.219563 h 0.65595 v 1.219563"
       style="fill:#ffffff;fill-opacity:1;fill-rule:evenodd;stroke:none;stroke-width:0.35277775" />
    <path
       id="path1622"
       d="m 124.29561,96.811474 h -0.65595 V 95.59191 h 0.65595 z m 0,0"
       style="fill:none;stroke:#ff0000;stroke-width:0.25400001;stroke-linecap:round;stroke-linejoin:round;stroke-miterlimit:10;stroke-opacity:1" />
    <path
       id="path1624"
       d="M 127.25288,96.027368 H 123.681 c -0.12816,0 -0.24942,-0.09922 -0.36104,-0.300414 -0.11162,-0.201194 -0.19982,-0.47542 -0.26321,-0.824061 -0.0648,-0.348649 -0.0978,-0.722096 -0.0978,-1.124483 0,-0.402387 0.0331,-0.777215 0.0978,-1.125855 0.0634,-0.347269 0.15159,-0.621496 0.26321,-0.822689 0.11162,-0.201194 0.23288,-0.301795 0.36104,-0.301795 h 4.75699 c 0.12816,0 0.24943,0.100601 0.36105,0.301795 0.11162,0.201193 0.19981,0.47542 0.2632,0.822689 0.0648,0.34864 0.0978,0.723468 0.0978,1.125855 0,0.402387 -0.0331,0.775834 -0.0978,1.124483 -0.0634,0.348641 -0.15158,0.622867 -0.2632,0.824061 -0.11162,0.201193 -0.23289,0.300414 -0.36105,0.300414 h -1.18511"
       style="fill:#ffffff;fill-opacity:1;fill-rule:evenodd;stroke:#ff0000;stroke-width:0.25400001;stroke-linecap:round;stroke-linejoin:round;stroke-miterlimit:10;stroke-opacity:1" />
    <path
       id="path1626"
       d="m 122.81835,92.678734 h 6.46024 v 2.199352 h -6.46024 z m 0,0"
       style="fill:#ffffff;fill-opacity:1;fill-rule:evenodd;stroke:#ff0000;stroke-width:0.25400001;stroke-linecap:round;stroke-linejoin:round;stroke-miterlimit:10;stroke-opacity:1" />
    <path
       id="path1628"
       d="m 129.63964,93.77841 -0.0179,0.35002"
       style="fill:none;stroke:#000000;stroke-width:0.25400001;stroke-linecap:round;stroke-linejoin:round;stroke-miterlimit:10;stroke-opacity:1" />
    <path
       id="path1630"
       d="m 129.62172,94.12843 -0.051,0.348649"
       style="fill:none;stroke:#000000;stroke-width:0.25400001;stroke-linecap:round;stroke-linejoin:round;stroke-miterlimit:10;stroke-opacity:1" />
    <path
       id="path1632"
       d="m 129.57074,94.477079 -0.0854,0.340377"
       style="fill:none;stroke:#000000;stroke-width:0.25400001;stroke-linecap:round;stroke-linejoin:round;stroke-miterlimit:10;stroke-opacity:1" />
    <path
       id="path1634"
       d="m 129.4853,94.817456 -0.11851,0.330725"
       style="fill:none;stroke:#000000;stroke-width:0.25400001;stroke-linecap:round;stroke-linejoin:round;stroke-miterlimit:10;stroke-opacity:1" />
    <path
       id="path1636"
       d="m 129.36679,95.148181 -0.15021,0.31695"
       style="fill:none;stroke:#000000;stroke-width:0.25400001;stroke-linecap:round;stroke-linejoin:round;stroke-miterlimit:10;stroke-opacity:1" />
    <path
       id="path1638"
       d="m 129.21658,95.465131 -0.18052,0.301785"
       style="fill:none;stroke:#000000;stroke-width:0.25400001;stroke-linecap:round;stroke-linejoin:round;stroke-miterlimit:10;stroke-opacity:1" />
    <path
       id="path1640"
       d="m 129.03606,95.766916 -0.20946,0.282499"
       style="fill:none;stroke:#000000;stroke-width:0.25400001;stroke-linecap:round;stroke-linejoin:round;stroke-miterlimit:10;stroke-opacity:1" />
    <path
       id="path1642"
       d="m 128.8266,96.049415 -0.23565,0.260452"
       style="fill:none;stroke:#000000;stroke-width:0.25400001;stroke-linecap:round;stroke-linejoin:round;stroke-miterlimit:10;stroke-opacity:1" />
    <path
       id="path1644"
       d="m 128.59095,96.309867 -0.17639,0.158479"
       style="fill:none;stroke:#000000;stroke-width:0.25400001;stroke-linecap:round;stroke-linejoin:round;stroke-miterlimit:10;stroke-opacity:1" />
    <path
       id="path1646"
       d="m 124.16469,96.811474 -0.0937,-0.0565"
       style="fill:none;stroke:#000000;stroke-width:0.25400001;stroke-linecap:round;stroke-linejoin:round;stroke-miterlimit:10;stroke-opacity:1" />
    <path
       id="path1648"
       d="m 124.07099,96.754976 -0.2825,-0.209465"
       style="fill:none;stroke:#000000;stroke-width:0.25400001;stroke-linecap:round;stroke-linejoin:round;stroke-miterlimit:10;stroke-opacity:1" />
    <path
       id="path1650"
       d="m 123.78849,96.545511 -0.26045,-0.235644"
       style="fill:none;stroke:#000000;stroke-width:0.25400001;stroke-linecap:round;stroke-linejoin:round;stroke-miterlimit:10;stroke-opacity:1" />
    <path
       id="path1652"
       d="M 123.52804,96.309867 123.2924,96.049415"
       style="fill:none;stroke:#000000;stroke-width:0.25400001;stroke-linecap:round;stroke-linejoin:round;stroke-miterlimit:10;stroke-opacity:1" />
    <path
       id="path1654"
       d="m 123.2924,96.049415 -0.20947,-0.282499"
       style="fill:none;stroke:#000000;stroke-width:0.25400001;stroke-linecap:round;stroke-linejoin:round;stroke-miterlimit:10;stroke-opacity:1" />
    <path
       id="path1656"
       d="m 123.08293,95.766916 -0.18052,-0.301785"
       style="fill:none;stroke:#000000;stroke-width:0.25400001;stroke-linecap:round;stroke-linejoin:round;stroke-miterlimit:10;stroke-opacity:1" />
    <path
       id="path1658"
       d="m 122.90241,95.465131 -0.15021,-0.31695"
       style="fill:none;stroke:#000000;stroke-width:0.25400001;stroke-linecap:round;stroke-linejoin:round;stroke-miterlimit:10;stroke-opacity:1" />
    <path
       id="path1660"
       d="m 122.7522,95.148181 -0.11851,-0.330725"
       style="fill:none;stroke:#000000;stroke-width:0.25400001;stroke-linecap:round;stroke-linejoin:round;stroke-miterlimit:10;stroke-opacity:1" />
    <path
       id="path1662"
       d="m 122.63369,94.817456 -0.0854,-0.340377"
       style="fill:none;stroke:#000000;stroke-width:0.25400001;stroke-linecap:round;stroke-linejoin:round;stroke-miterlimit:10;stroke-opacity:1" />
    <path
       id="path1664"
       d="m 122.54826,94.477079 -0.0193,-0.12678"
       style="fill:none;stroke:#000000;stroke-width:0.25400001;stroke-linecap:round;stroke-linejoin:round;stroke-miterlimit:10;stroke-opacity:1" />
    <path
       id="path1666"
       d="m 124.49267,90.564827 0.19706,-0.09509"
       style="fill:none;stroke:#000000;stroke-width:0.25400001;stroke-linecap:round;stroke-linejoin:round;stroke-miterlimit:10;stroke-opacity:1" />
    <path
       id="path1668"
       d="m 124.68973,90.469738 0.33073,-0.118508"
       style="fill:none;stroke:#000000;stroke-width:0.25400001;stroke-linecap:round;stroke-linejoin:round;stroke-miterlimit:10;stroke-opacity:1" />
    <path
       id="path1670"
       d="m 125.02046,90.35123 0.34037,-0.08406"
       style="fill:none;stroke:#000000;stroke-width:0.25400001;stroke-linecap:round;stroke-linejoin:round;stroke-miterlimit:10;stroke-opacity:1" />
    <path
       id="path1672"
       d="m 125.36083,90.267173 0.34727,-0.05237"
       style="fill:none;stroke:#000000;stroke-width:0.25400001;stroke-linecap:round;stroke-linejoin:round;stroke-miterlimit:10;stroke-opacity:1" />
    <path
       id="path1674"
       d="m 125.7081,90.214807 0.3514,-0.01654"
       style="fill:none;stroke:#000000;stroke-width:0.25400001;stroke-linecap:round;stroke-linejoin:round;stroke-miterlimit:10;stroke-opacity:1" />
    <path
       id="path1676"
       d="m 126.0595,90.198271 0.3514,0.01654"
       style="fill:none;stroke:#000000;stroke-width:0.25400001;stroke-linecap:round;stroke-linejoin:round;stroke-miterlimit:10;stroke-opacity:1" />
    <path
       id="path1678"
       d="m 126.4109,90.214807 0.34726,0.05237"
       style="fill:none;stroke:#000000;stroke-width:0.25400001;stroke-linecap:round;stroke-linejoin:round;stroke-miterlimit:10;stroke-opacity:1" />
    <path
       id="path1680"
       d="m 126.75816,90.267173 0.34038,0.08406"
       style="fill:none;stroke:#000000;stroke-width:0.25400001;stroke-linecap:round;stroke-linejoin:round;stroke-miterlimit:10;stroke-opacity:1" />
    <path
       id="path1682"
       d="m 127.09854,90.35123 0.33073,0.118508"
       style="fill:none;stroke:#000000;stroke-width:0.25400001;stroke-linecap:round;stroke-linejoin:round;stroke-miterlimit:10;stroke-opacity:1" />
    <path
       id="path1684"
       d="m 127.42927,90.469738 0.0179,0.0097"
       style="fill:none;stroke:#000000;stroke-width:0.25400001;stroke-linecap:round;stroke-linejoin:round;stroke-miterlimit:10;stroke-opacity:1" />
    <path
       id="path1686"
       d="m 124.53814,92.568493 h 3.71244 c 0.0593,0.265962 0.10059,0.53606 0.12402,0.808908 0.0221,0.272853 0.0262,0.545705 0.011,0.818558 -0.0138,0.272849 -0.0482,0.542946 -0.0992,0.811664 -0.0524,0.268718 -0.12265,0.531922 -0.21084,0.790991 l -0.5457,0.880569 h -2.98621 l -0.54571,-0.880569 c -0.0882,-0.259069 -0.15847,-0.522273 -0.21084,-0.790991 -0.051,-0.268718 -0.0854,-0.538815 -0.0992,-0.811664 -0.0152,-0.272853 -0.011,-0.545705 0.011,-0.818558 0.0234,-0.272848 0.0648,-0.542946 0.12402,-0.808908 h 0.71521 m 1.50068,3.180514 h -0.004 l 0.001,0.930176"
       style="fill:#ffffff;fill-opacity:1;fill-rule:evenodd;stroke:none;stroke-width:0.35277775" />
    <path
       id="path1688"
       d="m 124.53814,92.568498 h 3.71244 c 0.0593,0.265955 0.10059,0.53605 0.12402,0.808905 0.0221,0.272847 0.0262,0.545702 0.011,0.818557 -0.0138,0.272847 -0.0482,0.542942 -0.0992,0.811657 -0.0524,0.268724 -0.12265,0.531927 -0.21084,0.790999 l -0.54571,0.880567 h -2.98621 l -0.5457,-0.880567 c -0.0882,-0.259072 -0.15847,-0.522275 -0.21084,-0.790999 -0.051,-0.268715 -0.0854,-0.53881 -0.0992,-0.811657 -0.0152,-0.272855 -0.011,-0.54571 0.011,-0.818557 0.0234,-0.272855 0.0648,-0.54295 0.12402,-0.808905 h 0.7152 m 1.50069,3.180511 h -0.004"
       style="fill:none;stroke:#ff0000;stroke-width:0.25400001;stroke-linecap:round;stroke-linejoin:round;stroke-miterlimit:10;stroke-opacity:1" />
    <path
       id="path1690"
       d="m 127.69936,95.670456 c 0.0303,-0.213597 0.0524,-0.428566 0.0675,-0.643543 0.0152,-0.216349 0.022,-0.431326 0.022,-0.647675 0,-0.216357 -0.007,-0.431326 -0.022,-0.646303 -0.0152,-0.216348 -0.0372,-0.431326 -0.0675,-0.644923 l -0.50023,-0.230132 -0.40238,0.230132 c -0.0661,0.281119 -0.16675,0.551214 -0.30042,0.804774 -0.13504,0.25494 -0.30041,0.491964 -0.49333,0.705561 -0.19293,0.212217 -0.41204,0.401007 -0.65181,0.559477 -0.23978,0.15848 -0.50023,0.286639 -0.77171,0.38034 l 0.19982,0.779975 h 2.50389 l 0.41617,-0.647683"
       style="fill:#ffffff;fill-opacity:1;fill-rule:evenodd;stroke:#ff0000;stroke-width:0.25400001;stroke-linecap:round;stroke-linejoin:round;stroke-miterlimit:10;stroke-opacity:1" />
    <path
       id="path1692"
       d="m 126.59004,94.158749 h 1.04731 v 0.458885 h -1.04731 z m 0,0"
       style="fill:#ffffff;fill-opacity:1;fill-rule:evenodd;stroke:#ff0000;stroke-width:0.25400001;stroke-linecap:round;stroke-linejoin:round;stroke-miterlimit:10;stroke-opacity:1" />
  </g>
</svg>
