<?xml version="1.0" encoding="UTF-8" standalone="no"?>
<svg
   xmlns:dc="http://purl.org/dc/elements/1.1/"
   xmlns:cc="http://creativecommons.org/ns#"
   xmlns:rdf="http://www.w3.org/1999/02/22-rdf-syntax-ns#"
   xmlns:svg="http://www.w3.org/2000/svg"
   xmlns="http://www.w3.org/2000/svg"
   id="svg8"
   version="1.1"
   viewBox="0 0 4.244162 15.418803"
   height="15.418802mm"
   width="4.2441621mm">
  <defs
     id="defs2" />
  <metadata
     id="metadata5">
    <rdf:RDF>
      <cc:Work
         rdf:about="">
        <dc:format>image/svg+xml</dc:format>
        <dc:type
           rdf:resource="http://purl.org/dc/dcmitype/StillImage" />
        <dc:title></dc:title>
      </cc:Work>
    </rdf:RDF>
  </metadata>
  <g
     transform="translate(-123.09283,-85.426397)"
     id="layer1">
    <path
       id="path1712"
       d="m 127.24683,85.516569 v 0.363802 h -0.25356 v 8.652696 l -0.19017,0.5085 v 3.55534 h -0.50849 v 1.524113 h -0.57189 v 0.47542 h 0.35002 v 0.15986 H 125.2156 V 85.516569 h 2.03123"
       style="fill:#ffffff;fill-opacity:1;fill-rule:evenodd;stroke:none;stroke-width:0.35277775" />
    <path
       id="path1714"
       d="m 127.24683,85.516563 v 0.363804 h -0.25356 v 8.6527 l -0.19017,0.5085 v 3.55534 h -0.50849 v 1.524113 h -0.57189 v 0.47542 h 0.35002 v 0.15985 h -0.85714 m 0,-15.239727 h 2.03123"
       style="fill:none;stroke:#000000;stroke-width:0.17779998;stroke-linecap:round;stroke-linejoin:round;stroke-miterlimit:10;stroke-opacity:1" />
    <path
       id="path1716"
       d="m 123.183,85.516569 v 0.363802 h 0.25356 v 8.652696 l 0.19154,0.5085 v 3.55534 h 0.50712 v 1.524113 h 0.57189 v 0.47542 h -0.35003 v 0.15986 h 0.85852 V 85.516569 h -2.0326"
       style="fill:#ffffff;fill-opacity:1;fill-rule:evenodd;stroke:none;stroke-width:0.35277775" />
    <path
       id="path1718"
       d="m 123.183,85.516563 v 0.363804 h 0.25356 v 8.6527 l 0.19154,0.5085 v 3.55534 h 0.50712 v 1.524113 h 0.57189 v 0.47542 h -0.35003 v 0.15985 h 0.85852 m 0,-15.239727 h -2.0326"
       style="fill:none;stroke:#000000;stroke-width:0.17779998;stroke-linecap:round;stroke-linejoin:round;stroke-miterlimit:10;stroke-opacity:1" />
    <path
       id="path1720"
       d="m 123.43656,94.533067 h 3.55671"
       style="fill:none;stroke:#000000;stroke-width:0.127;stroke-linecap:round;stroke-linejoin:round;stroke-miterlimit:10;stroke-opacity:1" />
    <path
       id="path1722"
       d="m 123.6281,95.041567 h 3.175"
       style="fill:none;stroke:#000000;stroke-width:0.127;stroke-linecap:round;stroke-linejoin:round;stroke-miterlimit:10;stroke-opacity:1" />
    <path
       id="path1724"
       d="m 124.13522,98.596907 h 2.15939"
       style="fill:none;stroke:#000000;stroke-width:0.127;stroke-linecap:round;stroke-linejoin:round;stroke-miterlimit:10;stroke-opacity:1" />
    <path
       id="path1726"
       d="m 124.70711,100.12102 h 1.01561"
       style="fill:none;stroke:#000000;stroke-width:0.127;stroke-linecap:round;stroke-linejoin:round;stroke-miterlimit:10;stroke-opacity:1" />
    <path
       id="path1728"
       d="m 124.70711,100.59644 h 1.01561"
       style="fill:none;stroke:#000000;stroke-width:0.127;stroke-linecap:round;stroke-linejoin:round;stroke-miterlimit:10;stroke-opacity:1" />
    <path
       id="path1730"
       d="m 123.43656,85.880367 h 3.55671"
       style="fill:none;stroke:#000000;stroke-width:0.127;stroke-linecap:round;stroke-linejoin:round;stroke-miterlimit:10;stroke-opacity:1" />
  </g>
</svg>
