<svg xmlns="http://www.w3.org/2000/svg" viewBox="0 0 12.797 13.037" height="49.273" width="48.368"><g stroke-linecap="round" stroke-linejoin="round" stroke-miterlimit="10"><path d="M12.67 6.51l-.03.627M12.64 7.137l-.092.622M12.548 7.759l-.153.61M12.395 8.37l-.212.589M12.183 8.959l-.23.485M8.641 12.45l-.513.186M8.128 12.636l-.609.151M7.52 12.787l-.622.092M6.898 12.88l-.627.03M6.27 12.91l-.618-.03M1.634 10.913l-.31-.342M1.324 10.571l-.375-.505M.949 10.066l-.323-.538M.626 9.528l-.268-.57M.358 8.959l-.213-.59M.145 8.37l-.018-.074M.464 3.835l.162-.341M.626 3.494l.323-.54M.949 2.955l.375-.505M1.324 2.45l.421-.465M1.745 1.985l.465-.422M2.21 1.563l.126-.094M6.603.127l.295.014M6.898.14l.621.093M7.52.233l.608.153M8.128.386l.592.211M8.72.597l.567.269M9.287.866l.207.124M12.323 4.453l.072.2M12.395 4.653l.153.609M12.548 5.262l.092.621M12.64 5.883l.03.627" fill="none" stroke="#000" stroke-width=".254"/><path d="M2.327 3.76h7.899v5.5h-7.9zm0 0" fill="#fff" fill-rule="evenodd" stroke="#000" stroke-width=".254"/><path d="M2.159 5.179h8.222v2.664H2.16zm0 0" fill="#fff" fill-rule="evenodd" stroke="#000" stroke-width=".178"/><path d="M4.578.907l.235-.28h2.932l.236.28.26.853H8.3a.76.76 0 01.145.238.5.5 0 01.029.089 18.15 18.15 0 01.3 1.317 21.017 21.017 0 01.212 1.333l.156.074v3.886l-1.156 2.016a.602.602 0 01-.364.281.596.596 0 01-.156.021H5.094a.592.592 0 01-.426-.176.567.567 0 01-.095-.126L3.417 8.697V4.811l.157-.074c.027-.222.06-.445.095-.667a17.49 17.49 0 01.255-1.327c.05-.22.105-.439.161-.656a.875.875 0 01.03-.089c.011-.028.024-.057.04-.084a.59.59 0 01.047-.08.581.581 0 01.057-.074h.058l.261-.853" fill="#fff" fill-rule="evenodd" stroke="#000" stroke-width=".254"/><path d="M4.317 1.76H8.24M7.98.907H4.579" fill="none" stroke="#000" stroke-width=".178"/><path d="M5.276 9.26h2v1h-2zm0 0" fill="#fff" fill-rule="evenodd" stroke="red" stroke-width=".254"/></g></svg>