<svg xmlns="http://www.w3.org/2000/svg" viewBox="0 0 7.365 6.868" height="25.959" width="27.836"><path d="M1.894 6.74h-.656V5.52h.656v1.22" fill="#fff" fill-rule="evenodd"/><path d="M1.894 6.74h-.656V5.52h.656zm0 0" fill="none" stroke="red" stroke-width=".254" stroke-linecap="round" stroke-linejoin="round" stroke-miterlimit="10"/><path d="M4.851 5.956H1.28c-.128 0-.25-.099-.36-.3-.112-.201-.2-.476-.264-.824a6.143 6.143 0 01-.098-1.125c0-.402.033-.777.098-1.126.063-.347.152-.621.263-.822.112-.201.233-.302.361-.302h4.757c.128 0 .25.1.361.302.112.2.2.475.264.822.064.349.097.724.097 1.126 0 .403-.033.776-.097 1.125-.064.348-.152.623-.264.824-.111.201-.233.3-.36.3H4.85" fill="#fff" fill-rule="evenodd" stroke="red" stroke-width=".254" stroke-linecap="round" stroke-linejoin="round" stroke-miterlimit="10"/><path d="M.417 2.608h6.46v2.199H.417zm0 0" fill="#fff" fill-rule="evenodd" stroke="red" stroke-width=".254" stroke-linecap="round" stroke-linejoin="round" stroke-miterlimit="10"/><path d="M7.238 3.707l-.018.35M7.22 4.057l-.051.349M7.17 4.406l-.086.34M7.084 4.746l-.119.331M6.965 5.077l-.15.317M6.815 5.394l-.18.302M6.634 5.696l-.21.282M6.425 5.978l-.236.26M6.19 6.239l-.177.158M1.763 6.74l-.094-.056M1.67 6.684l-.283-.21M1.387 6.474l-.26-.235M1.126 6.239l-.235-.26M.89 5.978l-.209-.282M.681 5.696l-.18-.302M.5 5.394l-.15-.317M.35 5.077l-.118-.33M.232 4.746l-.085-.34M.147 4.406l-.02-.127M2.091.494l.197-.095M2.288.399l.33-.119M2.619.28l.34-.084M2.96.196l.346-.052M3.306.144l.352-.017M3.658.127l.351.017M4.01.144l.346.052M4.356.196l.34.084M4.697.28l.33.119M5.028.399l.017.01" fill="none" stroke="#000" stroke-width=".254" stroke-linecap="round" stroke-linejoin="round" stroke-miterlimit="10"/><path d="M2.136 2.497H5.85a5.996 5.996 0 01-.175 3.23l-.546.881H2.142l-.546-.88a6.027 6.027 0 01-.31-1.603 6.013 6.013 0 01.135-1.628h.715m1.501 3.18h-.004l.001.931" fill="#fff" fill-rule="evenodd"/><path d="M2.136 2.497H5.85a5.996 5.996 0 01-.175 3.23l-.546.881H2.142l-.546-.88a6.027 6.027 0 01-.31-1.603 6.012 6.012 0 01.135-1.628h.715m1.501 3.18h-.004" fill="none" stroke="red" stroke-width=".254" stroke-linecap="round" stroke-linejoin="round" stroke-miterlimit="10"/><path d="M5.298 5.6a9.148 9.148 0 00.067-1.938 9.161 9.161 0 00-.067-.645l-.5-.23-.403.23a3.386 3.386 0 01-.794 1.51 3.463 3.463 0 01-1.423.94l.2.78h2.504l.416-.648" fill="#fff" fill-rule="evenodd" stroke="red" stroke-width=".254" stroke-linecap="round" stroke-linejoin="round" stroke-miterlimit="10"/><path d="M4.188 4.088h1.048v.458H4.188zm0 0" fill="#fff" fill-rule="evenodd" stroke="red" stroke-width=".254" stroke-linecap="round" stroke-linejoin="round" stroke-miterlimit="10"/></svg>