<svg xmlns="http://www.w3.org/2000/svg" viewBox="0 0 4.244 15.419" height="58.276" width="16.041"><path d="M4.154.09v.364H3.9v8.653l-.19.508v3.556h-.508v1.524H2.63v.475h.35v.16h-.857V.09h2.031" fill="#fff" fill-rule="evenodd"/><path d="M4.154.09v.364H3.9v8.653l-.19.508v3.556h-.508v1.524H2.63v.475h.35v.16h-.857m0-15.24h2.031" fill="none" stroke="#000" stroke-width=".178" stroke-linecap="round" stroke-linejoin="round" stroke-miterlimit="10"/><path d="M.09.09v.364h.254v8.653l.191.508v3.556h.507v1.524h.572v.475h-.35v.16h.859V.09H.09" fill="#fff" fill-rule="evenodd"/><path d="M.09.09v.364h.254v8.653l.191.508v3.556h.507v1.524h.572v.475h-.35v.16h.859m0-15.24H.09" fill="none" stroke="#000" stroke-width=".178" stroke-linecap="round" stroke-linejoin="round" stroke-miterlimit="10"/><path d="M.344 9.107H3.9M.535 9.615H3.71M1.042 13.17h2.16M1.614 14.695H2.63M1.614 15.17H2.63M.344.454H3.9" fill="none" stroke="#000" stroke-width=".127" stroke-linecap="round" stroke-linejoin="round" stroke-miterlimit="10"/></svg>